<svg width="80" height="80" viewBox="0 0 80 80" fill="none" xmlns="http://www.w3.org/2000/svg">
<g clip-path="url(#clip0_5_2340)">
<path d="M80 0H0V80H80V0Z" fill="#0083F0"/>
<path d="M29.7662 62.6162H31.6056C32.9986 62.6162 34.2394 62.4042 35.3277 61.9805C36.4161 61.5569 37.3304 60.9742 38.0704 60.2327C38.8322 59.4912 39.4091 58.6119 39.7901 57.6055C40.2036 56.5674 40.3996 55.4445 40.3996 54.2264C40.3996 53.008 40.1927 51.917 39.7901 50.8789C39.3764 49.8407 38.7996 48.9509 38.0269 48.2094C37.2867 47.4679 36.3726 46.8852 35.2842 46.4615C34.1959 46.0377 32.9659 45.8259 31.6056 45.8259H29.7662V62.6162ZM21.7557 39.2157H33.6191C35.7196 39.2157 37.6786 39.6289 39.5071 40.4445C41.3572 41.2709 42.9681 42.3725 44.3286 43.7495C45.7217 45.1055 46.8101 46.6945 47.6046 48.5272C48.3991 50.328 48.7909 52.2242 48.7909 54.2157C48.7909 56.2072 48.3991 58.0717 47.6046 59.9042C46.8427 61.705 45.7652 63.3047 44.3721 64.6819C43.0116 66.0589 41.4009 67.1605 39.5506 67.9869C37.7222 68.8132 35.7522 69.2157 33.6191 69.2157H21.7557V39.2157Z" fill="white"/>
<path d="M10.4575 51.1545C10.4575 50.5283 10.5761 49.9438 10.8239 49.3907C11.0717 48.8168 11.4058 48.3159 11.8368 47.8984C12.2678 47.481 12.7635 47.1575 13.3346 46.9175C13.9272 46.6774 14.5522 46.5627 15.1988 46.5627C15.8453 46.5627 16.4487 46.6774 17.0198 46.9175C17.6125 47.1575 18.1297 47.481 18.5607 47.8984C18.9917 48.3159 19.3257 48.8168 19.5737 49.3907C19.8215 49.9438 19.94 50.5283 19.94 51.1545C19.94 51.7807 19.8215 52.3858 19.5737 52.9598C19.3257 53.513 18.9917 53.993 18.5607 54.4105C18.1297 54.8279 17.6125 55.1515 17.0198 55.3915C16.4487 55.6315 15.8453 55.7463 15.1988 55.7463C14.5522 55.7463 13.9272 55.6315 13.3346 55.3915C12.7635 55.1515 12.2678 54.8279 11.8368 54.4105C11.4058 53.993 11.0717 53.513 10.8239 52.9598C10.5761 52.3858 10.4575 51.7807 10.4575 51.1545Z" fill="white"/>
<path d="M10.4575 64.5219C10.4575 63.8817 10.5761 63.2844 10.8239 62.7189C11.0717 62.1322 11.4058 61.6202 11.8368 61.1934C12.2678 60.7667 12.7635 60.436 13.3346 60.1907C13.9272 59.9452 14.5522 59.8279 15.1988 59.8279C15.8453 59.8279 16.4487 59.9452 17.0198 60.1907C17.6125 60.436 18.1297 60.7667 18.5607 61.1934C18.9917 61.6202 19.3257 62.1322 19.5737 62.7189C19.8215 63.2844 19.94 63.8817 19.94 64.5219C19.94 65.1619 19.8215 65.7807 19.5737 66.3674C19.3257 66.9327 18.9917 67.4235 18.5607 67.8502C18.1297 68.2769 17.6125 68.6077 17.0198 68.853C16.4487 69.0984 15.8453 69.2157 15.1988 69.2157C14.5522 69.2157 13.9272 69.0984 13.3346 68.853C12.7635 68.6077 12.2678 68.2769 11.8368 67.8502C11.4058 67.4235 11.0717 66.9327 10.8239 66.3674C10.5761 65.7807 10.4575 65.1619 10.4575 64.5219Z" fill="white"/>
</g>
<defs>
<clipPath id="clip0_5_2340">
<rect width="80" height="80" rx="20" fill="white"/>
</clipPath>
</defs>
</svg>
