<svg width="88" height="24" viewBox="0 0 88 24" fill="none" xmlns="http://www.w3.org/2000/svg">
<path d="M6.14333 19.1644H7.53525C9.12478 19.1644 10.2675 18.9612 10.9549 18.5632C11.6423 18.1567 11.9859 17.5131 11.9859 16.6239C11.9859 15.7346 11.6423 15.0826 10.9549 14.6845C10.2675 14.2781 9.12478 14.0833 7.53525 14.0833H6.14333V19.1729V19.1644ZM6.14333 9.42555H7.30326C9.27944 9.42555 10.2761 8.6549 10.2761 7.10515C10.2761 5.5554 9.28803 4.78476 7.30326 4.78476H6.14333V9.43402V9.42555ZM0 0H9.4255C11.668 0 13.3607 0.54199 14.5292 1.60056C15.6891 2.65914 16.2734 4.19195 16.2734 6.18207C16.2734 7.39308 16.05 8.40085 15.5946 9.20536C15.165 9.99294 14.4948 10.662 13.5927 11.2124C14.4948 11.3818 15.2595 11.6443 15.8867 12.0085C16.5311 12.3472 17.0467 12.7706 17.4333 13.2788C17.8457 13.7869 18.1293 14.3627 18.3011 14.9979C18.473 15.633 18.5589 16.3105 18.5589 17.0303C18.5589 18.1567 18.3527 19.1475 17.9488 20.0198C17.5622 20.892 17.0037 21.6203 16.2734 22.2131C15.5602 22.8059 14.6924 23.2548 13.6614 23.5512C12.6303 23.8476 11.4704 24 10.173 24H0V0ZM21.3943 5.2844H17.8457V0H27.7266V23.9915H21.4029V5.29287L21.3943 5.2844ZM30.5534 23.9915V0H36.8772L48.5624 14.6676V0H54.8604V23.9915H48.5624L36.8772 9.32392V23.9915H30.5534Z" fill="#0083F0"/>
<path d="M72.9811 18.7071H74.4331C75.5329 18.7071 76.5124 18.5378 77.3716 18.199C78.2308 17.8603 78.9526 17.3945 79.5368 16.8017C80.1383 16.2089 80.5936 15.506 80.8944 14.7015C81.2209 13.8716 81.3755 12.9739 81.3755 12C81.3755 11.0261 81.2123 10.1538 80.8944 9.32392C80.5679 8.494 80.1125 7.78264 79.5024 7.18984C78.9182 6.59704 78.1964 6.13126 77.3372 5.79252C76.478 5.45378 75.5071 5.2844 74.4331 5.2844H72.9811V18.7071ZM66.6573 0H76.0227C77.6809 0 79.2275 0.330275 80.671 0.982357C82.1316 1.64291 83.4032 2.52364 84.4773 3.62456C85.577 4.70854 86.4362 5.97883 87.0635 7.4439C87.6907 8.88356 88 10.3994 88 11.9915C88 13.5836 87.6907 15.0741 87.0635 16.5392C86.462 17.9788 85.6114 19.2576 84.5116 20.3585C83.4376 21.4594 82.166 22.3402 80.7053 23.0007C79.2619 23.6613 77.7067 23.9831 76.0227 23.9831H66.6573V0Z" fill="#0083F0"/>
<path d="M57.6872 9.55258C57.6872 9.04446 57.7817 8.57022 57.9793 8.12138C58.1769 7.65561 58.4433 7.24912 58.787 6.91037C59.1306 6.57163 59.5259 6.3091 59.9813 6.11433C60.4538 5.91955 60.9522 5.82639 61.4677 5.82639C61.9832 5.82639 62.4644 5.91955 62.9198 6.11433C63.3923 6.3091 63.8047 6.57163 64.1484 6.91037C64.4921 7.24912 64.7585 7.65561 64.9561 8.12138C65.1537 8.57022 65.2482 9.04446 65.2482 9.55258C65.2482 10.0607 65.1537 10.5519 64.9561 11.0176C64.7585 11.4665 64.4921 11.856 64.1484 12.1948C63.8047 12.5335 63.3923 12.796 62.9198 12.9908C62.4644 13.1856 61.9832 13.2788 61.4677 13.2788C60.9522 13.2788 60.4538 13.1856 59.9813 12.9908C59.5259 12.796 59.1306 12.5335 58.787 12.1948C58.4433 11.856 58.1769 11.4665 57.9793 11.0176C57.7817 10.5519 57.6872 10.0607 57.6872 9.55258Z" fill="#0083F0"/>
<path d="M57.6872 20.2738C57.6872 19.7657 57.7817 19.2915 57.9793 18.8426C58.1769 18.3769 58.4433 17.9704 58.787 17.6316C59.1306 17.2929 59.5259 17.0303 59.9813 16.8356C60.4538 16.6408 60.9522 16.5476 61.4677 16.5476C61.9832 16.5476 62.4644 16.6408 62.9198 16.8356C63.3923 17.0303 63.8047 17.2929 64.1484 17.6316C64.4921 17.9704 64.7585 18.3769 64.9561 18.8426C65.1537 19.2915 65.2482 19.7657 65.2482 20.2738C65.2482 20.7819 65.1537 21.2731 64.9561 21.7389C64.7585 22.1877 64.4921 22.5773 64.1484 22.916C63.8047 23.2548 63.3923 23.5173 62.9198 23.7121C62.4644 23.9068 61.9832 24 61.4677 24C60.9522 24 60.4538 23.9068 59.9813 23.7121C59.5259 23.5173 59.1306 23.2548 58.787 22.916C58.4433 22.5773 58.1769 22.1877 57.9793 21.7389C57.7817 21.2731 57.6872 20.7819 57.6872 20.2738Z" fill="#0083F0"/>
</svg>
